HIERARCHY
ROOT Hips
{
    OFFSET 0.000000 0.000000 0.000000
    CHANNELS 6 Xposition Yposition Zposition Zrotation Xrotation Yrotation
    JOINT Spine
    {
        OFFSET -0.000000 7.236184 0.000000
        CHANNELS 3 Zrotation Xrotation Yrotation
        JOINT Spine1
        {
            OFFSET -0.000000 20.420147 0.000000
            CHANNELS 3 Zrotation Xrotation Yrotation
            JOINT Neck
            {
                OFFSET -0.000000 20.336288 1.848754
                CHANNELS 3 Zrotation Xrotation Yrotation
                JOINT Head
                {
                    OFFSET -0.000000 12.354461 -1.764923
                    CHANNELS 3 Zrotation Xrotation Yrotation
                    End Site
                    {
                        OFFSET -0.000000 22.061537 0.000000
                    }
                }
            }
            JOINT LeftShoulder
            {
                OFFSET 3.573296 18.396038 -0.314103
                CHANNELS 3 Zrotation Xrotation Yrotation
                JOINT LeftArm
                {
                    OFFSET 10.880760 0.000000 0.000000
                    CHANNELS 3 Zrotation Xrotation Yrotation
                    JOINT LeftForeArm
                    {
                        OFFSET 27.185530 0.000000 0.000000
                        CHANNELS 3 Zrotation Xrotation Yrotation
                        JOINT LeftHand
                        {
                            OFFSET 27.825975 0.000000 0.000000
                            CHANNELS 3 Zrotation Xrotation Yrotation
                            End Site
                            {
                                OFFSET 13.236923 0.000000 0.000000
                            }
                        }
                    }
                }
            }
            JOINT RightShoulder
            {
                OFFSET -3.474926 18.396038 -0.314103
                CHANNELS 3 Zrotation Xrotation Yrotation
                JOINT RightArm
                {
                    OFFSET -10.880760 0.000000 0.000000
                    CHANNELS 3 Zrotation Xrotation Yrotation
                    JOINT RightForeArm
                    {
                        OFFSET -27.185530 0.000000 0.000000
                        CHANNELS 3 Zrotation Xrotation Yrotation
                        JOINT RightHand
                        {
                            OFFSET -27.825975 0.000000 0.000000
                            CHANNELS 3 Zrotation Xrotation Yrotation
                            End Site
                            {
                                OFFSET -13.236923 0.000000 0.000000
                            }
                        }
                    }
                }
            }
        }
    }
    JOINT LeftUpLeg
    {
        OFFSET 8.824615 0.000000 0.000000
        CHANNELS 3 Zrotation Xrotation Yrotation
        JOINT LeftLeg
        {
            OFFSET -0.000000 -35.111282 0.000000
            CHANNELS 3 Zrotation Xrotation Yrotation
            JOINT LeftFoot
            {
                OFFSET -0.000000 -42.324711 0.000000
                CHANNELS 3 Zrotation Xrotation Yrotation
                JOINT LeftToeBase
                {
                    OFFSET -0.000000 -5.735999 13.236923
                    CHANNELS 3 Zrotation Xrotation Yrotation
                    End Site
                    {
                        OFFSET -0.000000 0.000000 3.529846
                    }
                }
            }
        }
    }
    JOINT RightUpLeg
    {
        OFFSET -8.824615 0.000000 0.000000
        CHANNELS 3 Zrotation Xrotation Yrotation
        JOINT RightLeg
        {
            OFFSET -0.000000 -35.111282 0.000000
            CHANNELS 3 Zrotation Xrotation Yrotation
            JOINT RightFoot
            {
                OFFSET -0.000000 -42.324711 0.000000
                CHANNELS 3 Zrotation Xrotation Yrotation
                JOINT RightToeBase
                {
                    OFFSET -0.000000 -5.735999 13.236923
                    CHANNELS 3 Zrotation Xrotation Yrotation
                    End Site
                    {
                        OFFSET -0.000000 0.000000 3.529846
                    }
                }
            }
        }
    }
}
MOTION
Frames:    5
Frame Time:    0.008333
-4.467088    83.174980    102.273262    -0.327915    -9.757613    -176.142899    -1.752814    -20.649881    -0.419738    1.359400    12.230137    -0.245796    1.703182    2.828760    -1.164701    5.571828    2.695211    -0.755238    2.341351    18.508129    -5.069199    -40.312450    49.939751    -44.847343    4.153064    -6.184876    -17.621428    20.278679    -5.319686    1.261274    3.247851    21.979342    -0.883046    40.214096    46.182526    38.312447    -7.021673    -9.367534    16.535070    -18.747944    -7.968551    -2.383930    7.565037    -14.248158    1.730228    -0.151879    11.336967    1.637170    -8.550409    -4.844934    -10.695053    -0.430028    -0.705996    0.477280    -8.143478    -8.944304    -0.756020    2.444046    5.473441    1.985956    5.506798    -4.362828    -12.964474    -1.038309    -1.074650    1.124679    
-4.467147    83.174149    102.262817    -0.324679    -9.761456    -176.143570    -1.754737    -20.652342    -0.418651    1.352233    12.236482    -0.243998    1.699639    2.825629    -1.163248    5.559739    2.687818    -0.754410    2.330376    18.514217    -5.047435    -40.401890    49.905815    -44.715996    4.120612    -6.244932    -17.649908    20.490334    -5.377646    1.282231    3.259468    21.985077    -0.897072    40.272949    46.151707    38.212570    -6.999850    -9.318363    16.518656    -18.728819    -7.919797    -2.408157    7.567502    -14.250848    1.745550    -0.146371    11.348745    1.619488    -8.526922    -4.865452    -10.690899    -0.426002    -0.694610    0.472802    -8.140092    -8.950338    -0.779092    2.442279    5.492041    2.016799    5.507216    -4.378201    -12.971311    -1.040007    -1.076562    1.126521    
-4.467252    83.173325    102.252434    -0.321498    -9.765340    -176.144241    -1.756638    -20.654808    -0.417544    1.345209    12.242436    -0.241894    1.695946    2.822630    -1.161743    5.547981    2.680725    -0.753563    2.319525    18.520319    -5.026145    -40.488354    49.872726    -44.587769    4.089428    -6.303408    -17.677559    20.688379    -5.434106    1.302296    3.270663    21.990768    -0.910633    40.330822    46.121529    38.114510    -6.977857    -9.269382    16.501549    -18.709354    -7.871321    -2.432349    7.569856    -14.253654    1.760937    -0.140778    11.360594    1.601695    -8.504946    -4.885518    -10.686769    -0.422088    -0.683741    0.468450    -8.136705    -8.956285    -0.803468    2.440270    5.510302    2.047945    5.507742    -4.393221    -12.977121    -1.041598    -1.078052    1.128247    
-4.467440    83.172523    102.242020    -0.318345    -9.769382    -176.144882    -1.758206    -20.656967    -0.415833    1.337803    12.247362    -0.239646    1.692656    2.819669    -1.160113    5.536098    2.674166    -0.752591    2.309067    18.526632    -5.005399    -40.571293    49.840378    -44.463020    4.059813    -6.359254    -17.703894    20.866314    -5.488274    1.320515    3.281834    21.996582    -0.923537    40.387402    46.092175    38.018341    -6.955045    -9.220087    16.483154    -18.688971    -7.822734    -2.456722    7.572122    -14.256732    1.776580    -0.135154    11.372589    1.583776    -8.485299    -4.904870    -10.682848    -0.418244    -0.673945    0.464175    -8.133229    -8.962264    -0.830330    2.437668    5.528336    2.080048    5.508611    -4.407890    -12.981341    -1.042996    -1.079559    1.129763    
-4.467744    83.171745    102.231621    -0.315220    -9.773613    -176.145508    -1.759645    -20.659101    -0.414056    1.330621    12.251340    -0.236635    1.689226    2.816851    -1.158283    5.524343    2.668154    -0.751456    2.298750    18.533030    -4.985542    -40.648506    49.809910    -44.343994    4.032412    -6.411333    -17.728382    21.019087    -5.538979    1.336843    3.292024    22.002415    -0.935383    40.442158    46.064697    37.925640    -6.931908    -9.171092    16.463024    -18.667253    -7.774597    -2.481375    7.574382    -14.260121    1.792257    -0.129736    11.384694    1.565855    -8.468623    -4.923252    -10.678994    -0.414464    -0.665585    0.459973    -8.129583    -8.968085    -0.858682    2.434367    5.545614    2.111634    5.509898    -4.421903    -12.983497    -1.044114    -1.080777    1.130976    
